<?xml version="1.0" standalone="no"?>
<!DOCTYPE svg PUBLIC "-//W3C//DTD SVG 20010904//EN"
 "http://www.w3.org/TR/2001/REC-SVG-20010904/DTD/svg10.dtd">
<svg version="1.0" xmlns="http://www.w3.org/2000/svg"
 width="500.000000pt" height="500.000000pt" viewBox="0 0 500.000000 500.000000"
 preserveAspectRatio="xMidYMid meet">
<metadata>
Created by potrace 1.14, written by Peter Selinger 2001-2017
</metadata>
<g transform="translate(0.000000,500.000000) scale(0.100000,-0.100000)"
fill="#000000" stroke="none">
<path d="M0 2500 l0 -2500 2500 0 2500 0 0 2500 0 2500 -2500 0 -2500 0 0
-2500z m1762 909 c134 -28 253 -121 313 -243 150 -304 23 -655 -274 -753 -33
-11 -106 -17 -258 -20 l-213 -5 0 -314 0 -314 -165 0 -165 0 0 830 0 830 355
0 c222 0 374 -4 407 -11z m1130 -1337 l3 -277 23 -3 c12 -2 22 -8 22 -13 0 -5
-40 -9 -90 -9 -53 0 -90 4 -90 10 0 6 9 10 20 10 35 0 40 31 40 268 0 204 -2
232 -17 251 -18 22 -18 22 -18 -16 0 -35 -2 -38 -29 -38 -37 0 -56 27 -38 55
17 27 16 30 -11 30 -40 0 -55 -28 -59 -110 l-3 -75 38 2 c20 2 37 -2 37 -7 0
-6 -16 -10 -35 -10 l-35 0 -1 -132 c-2 -184 -2 -188 12 -204 6 -8 22 -14 35
-14 13 0 24 -4 24 -10 0 -6 -40 -10 -100 -10 -55 0 -100 4 -100 9 0 5 10 11
22 13 32 4 39 46 36 205 l-3 138 -27 3 c-16 2 -28 8 -28 13 0 5 12 8 28 7 26
-3 27 -1 33 57 6 61 27 107 58 125 9 5 69 9 133 9 l118 1 2 -278z m-510 138
l3 -54 46 2 c26 2 50 -1 54 -7 4 -7 -12 -11 -49 -11 l-56 0 0 -170 0 -170 25
-6 c37 -9 54 1 71 42 18 42 29 39 19 -5 -9 -41 -49 -71 -94 -71 -79 1 -91 32
-91 224 l0 156 -41 0 c-24 0 -38 4 -34 10 3 6 22 10 41 10 l34 0 0 54 c0 52 1
55 28 58 37 5 40 1 44 -62z m-601 -66 c67 -34 100 -131 81 -234 -13 -73 -34
-106 -83 -131 -79 -40 -169 -18 -223 54 -29 39 -35 170 -11 233 34 89 144 126
236 78z m403 14 c29 -13 40 -39 32 -74 -6 -24 -28 -30 -60 -18 -19 7 -21 45
-4 62 9 9 7 12 -11 12 -30 0 -79 -53 -86 -93 -3 -18 -5 -79 -3 -137 l3 -105
32 -10 c60 -20 47 -25 -60 -25 -65 0 -107 4 -107 10 0 6 9 10 20 10 32 0 40
32 40 164 0 135 -8 171 -39 181 -38 12 -22 20 44 22 l65 1 0 -35 0 -35 27 32
c23 28 53 47 75 49 4 1 18 -4 32 -11z m1071 -16 c60 -36 93 -138 74 -235 -17
-92 -77 -147 -161 -147 -89 0 -149 51 -168 144 -20 96 14 206 73 237 59 32
127 32 182 1z m275 7 c0 -4 -11 -10 -25 -13 -15 -4 -25 -14 -25 -24 0 -21 73
-232 81 -232 3 0 27 62 55 137 27 75 54 138 59 140 6 2 35 -62 65 -142 30 -79
58 -141 61 -137 12 14 69 197 69 223 0 20 -6 28 -25 33 -44 11 -27 21 35 21
57 0 77 -9 45 -21 -15 -6 -53 -99 -106 -262 -18 -56 -38 -101 -44 -99 -5 2
-35 68 -66 147 l-56 142 -51 -142 c-28 -78 -54 -145 -57 -149 -10 -9 -20 14
-80 178 -31 86 -66 165 -76 177 -10 11 -19 22 -19 25 0 2 36 4 80 4 44 0 80
-3 80 -6z m532 -301 c24 -20 28 -44 12 -67 -17 -23 -53 -28 -72 -9 -19 19 -14
55 10 72 27 19 30 19 50 4z"/>
<path d="M1337 3084 c-4 -4 -7 -88 -7 -186 l0 -179 179 3 c205 3 217 8 259 88
44 88 18 206 -56 252 -34 21 -51 23 -202 26 -91 2 -168 0 -173 -4z"/>
<path d="M1652 2132 c-63 -48 -69 -266 -10 -329 23 -24 66 -30 97 -13 31 16
51 83 51 168 0 96 -13 145 -47 172 -31 24 -61 25 -91 2z"/>
<path d="M3115 2126 c-30 -30 -45 -84 -45 -166 0 -121 31 -180 93 -180 64 0
97 62 97 180 0 116 -37 190 -95 190 -14 0 -37 -11 -50 -24z"/>
</g>
</svg>
